<?xml version="1.0" encoding="UTF-8" standalone="no"?>
<svg
        width="542"
        height="112"
        viewBox="0 0 542 112"
        fill="none"
        version="1.1"
        id="svg32"
        sodipodi:docname="game_logo.svg"
        inkscape:version="1.2.2 (732a01da63, 2022-12-09)"
        xmlns:inkscape="http://www.inkscape.org/namespaces/inkscape"
        xmlns:sodipodi="http://sodipodi.sourceforge.net/DTD/sodipodi-0.dtd"
        xmlns="http://www.w3.org/2000/svg"
>
  <defs
          id="defs36"/>
  <sodipodi:namedview
          id="namedview34"
          pagecolor="#ffffff"
          bordercolor="#000000"
          borderopacity="0.25"
          inkscape:showpageshadow="2"
          inkscape:pageopacity="0"
          inkscape:pagecheckerboard="0"
          inkscape:deskcolor="#d1d1d1"
          showgrid="false"
          inkscape:zoom="2.8745387"
          inkscape:cx="271"
          inkscape:cy="56.356869"
          inkscape:window-width="2560"
          inkscape:window-height="1334"
          inkscape:window-x="-11"
          inkscape:window-y="-11"
          inkscape:window-maximized="1"
          inkscape:current-layer="svg32"/>
  <path
          d="M17 17H24V0H0V42.7L17 55.06V17Z"
          fill="white"
          id="path2"/>
  <path
          fill-rule="evenodd"
          clip-rule="evenodd"
          d="M57 17V0H31V17H36V24H24V66.52L36 75.05V85.2L17 71.36V62.62L0 50.19V79.85L44 112L88 79.85V50.2L71 62.63V71.37L52 85.19V75.05L64 66.52V24H52V17H57ZM48.09 41.6L59.0075 42.3371L50.66 49.31L53.25 60.04L43.99 54.18L34.75 60.04L37.35 49.3L28.98 42.3L39.94 41.56L44.01 31.26L48.09 41.6Z"
          fill="white"
          id="path4"/>
  <path
          d="M88 42.19L71 54.32V17H64V0H88V42.19Z"
          fill="white"
          id="path6"/>
  <path
          d="m 205.39725,83.943326 -4.01285,12.918621 h -0.41178 V 83.943326 h -5.24819 v 25.837244 h 5.1836 l 4.10166,-13.32233 h 0.40371 v 13.32233 h 5.24819 V 83.943326 Z"
          fill="#ffffff"
          id="path8"
          style="stroke-width:0.403707"/>
  <path
          fill-rule="evenodd"
          clip-rule="evenodd"
          d="m 224.05254,85.509709 c 0.47638,0.480411 0.83568,1.065786 1.05772,1.70768 l -0.004,0.004 c 0.39967,1.239381 0.48848,2.289018 0.48848,4.105699 v 3.734289 c 0,1.820718 -0.0888,2.866319 -0.48848,4.105699 -0.218,0.641894 -0.58134,1.227274 -1.05368,1.707684 -0.47233,0.48041 -1.0456,0.84374 -1.67942,1.06982 -1.22727,0.4037 -2.25268,0.49656 -4.0411,0.49656 v 7.33939 h -5.6519 V 83.943326 h 5.64786 c 1.78842,0 2.81787,0.09285 4.04111,0.49656 0.63382,0.222039 1.20708,0.589412 1.68345,1.069823 z m -4.00477,12.240393 c 0.0928,-0.100927 0.16148,-0.218002 0.20589,-0.351225 v 0.004 c 0.0767,-0.274521 0.109,-0.561152 0.10093,-0.847784 V 89.90604 c 0.008,-0.286632 -0.0242,-0.573264 -0.0969,-0.847784 -0.0444,-0.133224 -0.11304,-0.250299 -0.20589,-0.351225 -0.0888,-0.100927 -0.20185,-0.173594 -0.32297,-0.222039 -0.25433,-0.0767 -0.52078,-0.113038 -0.78319,-0.100927 h -0.61363 v 9.688966 h 0.6096 c 0.26644,0.01211 0.52885,-0.02019 0.78319,-0.100927 0.12111,-0.04845 0.23011,-0.125149 0.32296,-0.222039 z"
          fill="#ffffff"
          id="path10"
          style="stroke-width:0.403707"/>
  <path
          d="m 186.8227,83.943326 -2.86632,14.533448 h -0.2826 l -2.86632,-14.533448 h -6.8832 v 25.837244 h 5.24819 V 95.247119 h 0.14937 l 3.1691,14.533451 h 2.35765 l 3.1691,-14.533451 h 0.44408 v 14.533451 h 5.24818 V 83.943326 Z"
          fill="#ffffff"
          id="path12"
          style="stroke-width:0.403707"/>
  <path
          fill-rule="evenodd"
          clip-rule="evenodd"
          d="m 277.9999,83.943326 h 9.03899 l 3.96037,25.837244 h -5.6842 l -0.60959,-4.44078 h -4.36811 l -0.6096,4.44078 h -5.68419 z m 4.78796,5.651897 h -0.545 l -1.34839,11.303797 h 3.24581 z"
          fill="#ffffff"
          id="path14"
          style="stroke-width:0.403707"/>
  <path
          d="m 318.66529,83.943326 h -9.30948 l -3.4194,25.837244 h 5.7286 l 2.07909,-19.377933 h 0.5329 l 2.07909,19.377933 h 5.7286 z"
          fill="#ffffff"
          id="path16"
          style="stroke-width:0.403707"/>
  <path
          d="m 240.1443,83.943326 h 5.75686 l -4.15414,12.510877 v 0.04441 l 4.15414,13.281957 h -5.75686 l -3.09239,-10.900087 h -0.55308 v 10.900087 h -5.6519 V 83.943326 h 5.6519 v 10.092673 h 0.55308 z"
          fill="#ffffff"
          id="path18"
          style="stroke-width:0.403707"/>
  <path
          d="m 341.44647,96.861947 h -0.38756 V 83.943326 h -4.84448 v 25.837244 h 5.25223 l 4.02899,-13.32233 h 0.40774 v 13.32233 h 4.84449 V 83.943326 h -5.62364 z"
          fill="#ffffff"
          id="path20"
          style="stroke-width:0.403707"/>
  <path
          d="m 339.04038,79.098844 h 8.88155 v 3.229655 h -8.88155 z"
          fill="#ffffff"
          id="path22"
          style="stroke-width:0.403707"/>
  <path
          d="m 334.5996,88.787809 v -4.844483 h -11.30379 v 25.837244 h 11.30379 v -4.84448 h -5.65189 v -6.055609 h 4.84448 v -4.440775 h -4.84448 v -5.651897 z"
          fill="#ffffff"
          id="path24"
          style="stroke-width:0.403707"/>
  <path
          fill-rule="evenodd"
          clip-rule="evenodd"
          d="m 258.24652,85.453109 c 0.49252,0.528857 0.86797,1.154602 1.10212,1.836867 l 0.004,0.004 c 0.56519,1.590605 0.56519,2.943023 0.56519,7.218279 v 4.715297 c 0,4.279288 0,5.623638 -0.56519,7.214238 -0.23415,0.68226 -0.60959,1.30801 -1.10211,1.83687 -0.49656,0.52482 -1.09809,0.94467 -1.7642,1.22323 -1.08598,0.45215 -2.25269,0.6863 -3.43151,0.6863 -1.17883,0 -2.34554,-0.23415 -3.43151,-0.6863 -0.67015,-0.2826 -1.27168,-0.69841 -1.7642,-1.22727 -0.49252,-0.52886 -0.86797,-1.1546 -1.10212,-1.83687 -0.56519,-1.58656 -0.56519,-2.93898 -0.56519,-7.214236 v -4.715296 c 0,-4.28333 0,-5.627674 0.56519,-7.218279 0.23415,-0.682265 0.6096,-1.30801 1.10212,-1.836867 0.49252,-0.524818 1.09405,-0.944674 1.76016,-1.223231 1.08597,-0.452152 2.25269,-0.686302 3.43151,-0.686302 1.17882,0 2.34554,0.23415 3.43151,0.686302 0.67015,0.278557 1.27168,0.694375 1.7642,1.223231 z m -3.75044,19.640341 c 0.12515,-0.28259 0.16956,-0.60556 0.16956,-1.61886 V 90.253184 c 0,-1.013304 -0.0404,-1.336269 -0.16956,-1.622901 -0.10496,-0.266447 -0.31085,-0.480411 -0.57326,-0.601524 -0.20993,-0.09689 -0.43601,-0.145334 -0.66612,-0.145334 -0.23011,0 -0.45619,0.04845 -0.66612,0.145334 -0.25837,0.121113 -0.46426,0.335077 -0.57326,0.601524 -0.12515,0.286632 -0.16956,0.609597 -0.16956,1.622901 v 13.221406 c 0,1.00926 0.0404,1.33223 0.16956,1.61886 0.10496,0.26645 0.31086,0.48041 0.57326,0.60152 0.20993,0.0969 0.43601,0.14534 0.66612,0.14534 0.23011,0 0.45619,-0.0485 0.66612,-0.14534 0.25837,-0.12111 0.46426,-0.33507 0.57326,-0.60152 z"
          fill="#ffffff"
          id="path26"
          style="stroke-width:0.403707"/>
  <path
          fill-rule="evenodd"
          clip-rule="evenodd"
          d="m 273.95879,87.217389 c -0.22204,-0.641894 -0.58134,-1.227269 -1.05367,-1.70768 -0.47234,-0.480411 -1.04964,-0.847784 -1.67943,-1.069823 -1.22323,-0.403707 -2.25268,-0.49656 -4.0411,-0.49656 h -5.6519 v 25.837244 h 5.6519 v -7.59373 c 1.78842,0 2.81384,-0.0928 4.0411,-0.49656 0.63382,-0.22607 1.20709,-0.58941 1.67943,-1.06982 0.47233,-0.48041 0.83567,-1.065788 1.05367,-1.707682 0.39967,-1.243417 0.48849,-2.284981 0.48849,-4.105699 v -3.483991 c 0,-1.816681 -0.0929,-2.866319 -0.48849,-4.105699 z m -4.85256,10.16534 c -0.0444,0.13726 -0.11303,0.258372 -0.20589,0.359299 -0.0928,0.100927 -0.20185,0.177631 -0.327,0.226076 -0.25434,0.08074 -0.51674,0.117075 -0.78319,0.104964 h -0.6096 v -9.688966 h 0.6096 c 0.26241,-0.01211 0.52885,0.02422 0.78319,0.104964 0.12111,0.04845 0.23415,0.125149 0.327,0.226076 0.0929,0.100927 0.16149,0.226076 0.20589,0.359299 0.0727,0.282595 0.10497,0.577301 0.0969,0.86797 v 6.564274 c 0.008,0.294706 -0.0242,0.589412 -0.0969,0.86797 z"
          fill="#ffffff"
          id="path28"
          style="stroke-width:0.403707"/>
  <path
          fill-rule="evenodd"
          clip-rule="evenodd"
          d="m 303.49802,94.124895 c 0.5006,0.480411 0.88008,1.065786 1.11423,1.70768 h 0.004 c 0.41986,1.23938 0.51675,2.284981 0.51675,4.101662 v 2.462613 c 0,1.82072 -0.0969,2.86228 -0.51675,4.1057 -0.23415,0.64189 -0.61363,1.22727 -1.11423,1.70768 -0.5006,0.48041 -1.11019,0.84375 -1.77631,1.06982 -1.29186,0.40371 -2.3738,0.49656 -4.26314,0.49656 h -5.25219 V 83.93937 h 11.7075 v 4.844483 h -6.45931 v 3.770622 c 1.88935,0 2.97128,0.09285 4.26314,0.49656 0.67016,0.226075 1.27572,0.593449 1.77631,1.07386 z m -3.7141,10.536755 c 0.0767,-0.27856 0.109,-0.56519 0.0969,-0.85183 v -5.42178 c 0.008,-0.286632 -0.0242,-0.577301 -0.0969,-0.851822 -0.0444,-0.133223 -0.11304,-0.250298 -0.20589,-0.351225 -0.0928,-0.100927 -0.20589,-0.173594 -0.327,-0.222039 -0.25434,-0.0767 -0.51675,-0.113038 -0.78319,-0.100926 h -0.6096 v 8.477842 h 0.6096 c 0.2624,0.008 0.52885,-0.0242 0.78319,-0.10496 0.12515,-0.0485 0.23415,-0.12111 0.327,-0.22204 0.0928,-0.0969 0.16148,-0.218 0.20589,-0.35122 z"
          fill="#ffffff"
          id="path30"
          style="stroke-width:0.403707"/>
  <path
          d="m 169.40859,19.019573 q -0.512,-1.279999 -1.45066,-2.815999 -0.85334,-1.535999 -1.96267,-3.157332 -1.024,-1.706666 -2.21867,-3.3279984 -1.10933,-1.706666 -2.21866,-3.1573321 l 6.912,-3.8399984 q 1.10933,1.3653328 2.30399,2.9866655 1.19467,1.5359993 2.304,3.157332 1.10934,1.6213324 2.048,3.1573324 1.024,1.450666 1.62134,2.645332 z M 130.15527,63.734221 V 46.582228 h -18.34665 v 17.151993 z m 47.27465,-27.391989 q -2.13333,6.314664 -5.20533,12.373329 -3.072,6.058664 -7.168,11.519995 1.19467,3.413332 2.38934,5.375998 1.28,1.877332 2.73066,2.047999 2.048,0.170666 2.73067,-11.263996 0.59733,0.768 1.62133,1.621333 1.024,0.853333 2.048,1.621333 1.024,0.767999 1.96266,1.450666 0.93867,0.597333 1.536,0.938666 -0.768,5.290665 -1.96266,8.703996 -1.10933,3.413332 -2.47467,5.290665 -1.28,1.962666 -2.73066,2.645332 -1.36534,0.768 -2.64534,0.768 -3.92533,-0.170667 -6.91199,-3.071999 -2.98667,-2.815999 -5.29067,-7.935997 -2.816,2.901333 -5.80266,5.205332 -2.98667,2.389332 -6.22933,4.266664 -1.19467,-1.450666 -2.98667,-3.242665 -1.70666,-1.706666 -3.49866,-3.157332 v 5.887998 h -9.38667 v -4.437332 h -18.34665 v 4.863998 h -9.04533 v -40.36265 h 11.86132 V 0.672914 h 9.728 v 13.823994 h 16.29866 v 8.959996 h -16.29866 v 13.994661 h 15.18933 v 33.023987 q 4.352,-2.218666 8.10666,-5.205332 3.84,-2.986665 7.25333,-6.74133 -1.28,-5.290665 -2.304,-11.605329 -0.93866,-6.314664 -1.62133,-13.567994 l -9.64266,1.365333 -1.36534,-8.703997 10.32533,-1.450666 q -0.42666,-5.631997 -0.68266,-11.605328 -0.256,-6.0586643 -0.42667,-12.54399489 h 9.38666 q 0.0853,6.05866409 0.256,11.77599489 0.256,5.717331 0.68267,11.093329 l 17.83466,-2.474666 1.36533,8.53333 -18.51732,2.730666 q 0.42666,4.522664 0.93866,8.618663 0.59733,4.095998 1.28,7.76533 2.304,-3.925332 4.18133,-8.02133 1.87734,-4.095999 3.24267,-8.362663 z"
          style="font-size:85.3333px;font-family:'Source Han Sans CN Bold WH';-inkscape-font-specification:'Source Han Sans CN Bold WH';fill:#ffffff"
          id="path565"/>
  <path
          d="M 231.87257,48.288894 H 222.7419 V 3.5742461 h 37.37599 V 48.288894 h -9.55733 V 12.278242 h -18.68799 z m -27.39199,-2.559999 q 1.536,2.730666 2.98666,5.973331 1.536,3.242665 2.38933,5.717331 V 43.851563 h -10.92266 q 0,1.023999 -0.0853,2.133332 0,1.024 0,2.133333 z m -5.54667,-9.983996 h 10.92266 V 17.91024 h -10.92266 v 4.181332 l 5.97333,-2.303999 q 1.36534,2.730665 2.56,5.887997 1.28,3.157332 1.96267,5.461331 l -6.4,2.730666 q -0.59733,-2.303999 -1.792,-5.461331 -1.10933,-3.157332 -2.304,-5.887998 z m 55.29598,34.389319 q 0.68267,0 1.10933,-0.511999 0.512,-0.597334 0.768,-2.133333 0.34134,-1.535999 0.512,-4.095998 0.17067,-2.645332 0.256,-6.741331 1.70667,1.194666 3.84,2.218666 2.21867,0.938666 4.01067,1.365333 -0.34134,4.949331 -0.85334,8.27733 -0.512,3.327998 -1.62133,5.290664 -1.10933,1.962666 -3.072,2.815999 -1.87733,0.853333 -5.03466,0.853333 h -5.03467 q -4.94933,0 -7.168,-1.962666 -2.21866,-1.877332 -2.21866,-7.25333 v -6.997331 q -2.47467,4.863998 -6.22933,9.30133 -3.75467,4.437331 -9.38666,8.02133 -0.768,-1.28 -2.47467,-3.157332 -1.70667,-1.877333 -3.15733,-3.071999 -0.512,3.242665 -3.072,4.863998 -1.87733,1.194666 -4.43733,1.450666 -2.56,0.256 -6.4,0.256 -0.17067,-1.791999 -0.93867,-4.351998 -0.68266,-2.474666 -1.62133,-4.181332 2.048,0.08533 3.92533,0.08533 1.96267,0 2.64534,-0.08533 1.27999,0 1.27999,-1.279999 V 58.01689 l -6.22933,2.815999 q -0.59733,-2.474666 -2.048,-5.717331 -1.36533,-3.242665 -2.81599,-6.143997 -0.17067,4.010665 -0.59734,8.277329 -0.34133,4.181332 -1.19466,8.27733 -0.768,4.010665 -2.048,7.76533 -1.28,3.754665 -3.15733,6.826664 -0.59734,-0.512 -1.62134,-1.279999 -0.93866,-0.682667 -2.048,-1.365333 -1.024,-0.682666 -2.13333,-1.365333 -1.024,-0.597333 -1.792,-0.938666 1.96267,-3.242665 3.072,-7.082664 1.19467,-3.839998 1.792,-7.935996 0.68267,-4.095999 0.85333,-8.191997 0.256,-4.181332 0.256,-8.106663 h -5.54666 v -8.106664 h 5.54666 V 10.059577 h 7.85067 q 0.68266,-2.5599992 1.19466,-5.2906647 0.512,-2.8159988 0.768,-5.20533117 l 10.15466,1.70666597 q -0.76799,2.303999 -1.62133,4.5226648 -0.768,2.2186657 -1.536,4.2666651 h 11.69066 v 59.135975 q 0,0.597333 0,1.109333 0,0.512 -0.0853,1.024 6.144,-4.095999 9.728,-8.959997 3.584,-4.863998 5.37599,-9.898662 1.87734,-5.119998 2.38934,-10.154663 0.59733,-5.034664 0.59733,-9.557329 V 17.65424 h 9.13066 v 15.189327 q 0,3.583999 -0.34133,7.594664 -0.34133,3.925331 -1.28,8.02133 h 4.864 v 18.773325 q 0,1.621333 0.512,2.303999 0.512,0.597333 1.536,0.597333 z"
          style="font-size:85.3333px;font-family:'Source Han Sans CN Bold WH';-inkscape-font-specification:'Source Han Sans CN Bold WH';fill:#ffffff"
          id="path567"/>
  <path
          d="m 314.7312,30.027568 v 16.04266 h 11.77599 v -16.04266 z m -10.06933,25.34399 V 30.027568 H 293.05654 V 65.01422 h 53.16264 v 9.81333 H 282.47521 V 30.027568 h -11.51999 v -9.813329 h 11.51999 V 2.2089134 h 10.58133 V 20.214239 h 11.60533 V 0.41691411 H 314.7312 V 20.214239 h 11.77599 V 1.1849138 h 10.66667 V 20.214239 h 11.26399 v 9.813329 h -11.26399 v 25.34399 z"
          style="font-size:85.3333px;font-family:'Source Han Sans CN Bold WH';-inkscape-font-specification:'Source Han Sans CN Bold WH';fill:#ffffff"
          id="path569"/>
  <path
          d="m 374.97651,30.710235 h 14.93332 v -6.143998 h -14.93332 z m 0,-13.738661 h 14.93332 v -6.143998 h -14.93332 z m 40.10665,-6.143998 h -14.93333 v 6.143998 h 14.93333 z m 0,13.738661 h -14.93333 v 6.143998 h 14.93333 z m -3.328,14.335994 q 4.608,3.839999 10.66666,6.826664 6.05866,2.986666 12.71466,4.693332 -1.62133,1.535999 -3.584,4.095998 -1.96266,2.559999 -3.15733,4.607998 -7.85066,-2.645332 -14.42133,-6.911997 V 79.179548 H 403.39249 V 49.142227 h 6.4 q -2.90133,-2.303999 -5.46133,-4.778665 -2.47467,-2.559998 -4.52266,-5.461331 h -8.78933 q -2.13334,2.815999 -4.77867,5.375998 -2.56,2.474666 -5.46133,4.778665 h 7.25333 v 5.887997 q 0,3.071999 -0.68267,6.485331 -0.59733,3.413332 -2.64533,6.826664 -2.048,3.327998 -5.888,6.399997 -3.83999,3.071999 -10.23999,5.375998 -0.512,-0.938666 -1.36533,-2.047999 -0.85334,-1.109333 -1.87734,-2.303999 -0.93866,-1.109333 -1.96266,-2.133333 -0.93867,-1.023999 -1.792,-1.706666 5.376,-1.791999 8.53333,-3.925331 3.15733,-2.133333 4.77866,-4.437332 1.70667,-2.303999 2.13334,-4.607998 0.51199,-2.303999 0.51199,-4.351998 v -3.071999 q -7.25333,4.949331 -15.53066,7.935997 -1.10933,-1.877333 -3.07199,-4.266665 -1.87734,-2.474666 -3.584,-4.095998 6.39999,-1.877333 12.37333,-5.034665 6.05866,-3.157332 10.66666,-7.082664 h -13.568 V 2.6355798 h 60.84264 V 38.902231 Z"
          style="font-size:85.3333px;font-family:'Source Han Sans CN Bold WH';-inkscape-font-specification:'Source Han Sans CN Bold WH';fill:#ffffff"
          id="path571"/>
  <path
          d="m 467.01505,32.061708 q -0.224,-0.208 -0.576,-0.464 -0.336,-0.256 -0.736,-0.496 -0.4,-0.256 -0.832,-0.48 -0.416,-0.224 -0.8,-0.4 l 0.976,-1.392 q 0.368,0.16 0.8,0.368 0.432,0.192 0.832,0.416 0.416,0.224 0.784,0.464 0.368,0.224 0.608,0.432 z m -0.704,4.24 q -0.24,-0.208 -0.608,-0.448 -0.352,-0.24 -0.768,-0.48 -0.416,-0.24 -0.848,-0.448 -0.432,-0.224 -0.816,-0.4 l 0.912,-1.424 q 0.384,0.144 0.816,0.352 0.432,0.192 0.848,0.4 0.432,0.208 0.8,0.432 0.384,0.224 0.656,0.416 z m 1.664,1.968 q -0.624,1.248 -1.344,2.56 -0.704,1.296 -1.424,2.464 l -1.52,-1.28 q 0.304,-0.448 0.672,-1.024 0.384,-0.592 0.768,-1.248 0.4,-0.656 0.784,-1.36 0.4,-0.704 0.752,-1.408 z m 2.784,-6.912 q 0.368,1.728 0.96,3.264 0.592,1.536 1.424,2.848 0.816,-1.232 1.408,-2.752 0.608,-1.52 0.944,-3.36 z m 6.752,-1.472 q -0.368,2.992 -1.168,5.248 -0.8,2.24 -2.016,3.904 0.816,0.912 1.776,1.616 0.976,0.704 2.16,1.184 -0.16,0.144 -0.336,0.336 -0.176,0.208 -0.352,0.416 -0.16,0.224 -0.32,0.432 -0.144,0.224 -0.24,0.384 -1.184,-0.544 -2.16,-1.264 -0.976,-0.72 -1.792,-1.632 -0.96,0.96 -2.112,1.68 -1.136,0.736 -2.48,1.264 -0.08,-0.192 -0.208,-0.416 -0.128,-0.208 -0.272,-0.432 -0.144,-0.224 -0.304,-0.416 -0.144,-0.192 -0.288,-0.336 1.296,-0.448 2.432,-1.152 1.136,-0.704 2.08,-1.696 -1.024,-1.552 -1.744,-3.408 -0.72,-1.872 -1.232,-4.064 l 0.848,-0.176 h -1.312 v -1.792 h 7.536 l 0.304,-0.08 z"
          id="path578"
          style="font-size:16px;font-family:'Source Han Sans CN Bold WH';-inkscape-font-specification:'Source Han Sans CN Bold WH';fill:#ffffff"/>
  <path
          d="m 491.36705,41.309708 q 0.256,0 0.416,-0.144 0.16,-0.144 0.256,-0.512 0.096,-0.368 0.144,-0.992 0.064,-0.64 0.112,-1.632 0.368,0.288 0.912,0.56 0.544,0.256 0.96,0.352 -0.08,1.168 -0.24,1.984 -0.144,0.8 -0.432,1.312 -0.288,0.512 -0.752,0.736 -0.464,0.24 -1.184,0.24 h -2.336 q -0.736,0 -1.232,-0.144 -0.48,-0.144 -0.768,-0.496 -0.288,-0.352 -0.416,-0.928 -0.112,-0.576 -0.112,-1.44 v -1.648 q -0.896,0.56 -1.824,0.992 -0.192,-0.272 -0.544,-0.64 -0.352,-0.384 -0.704,-0.672 v 5.248 h -2.016 v -8.4 q -0.304,0.368 -0.608,0.688 -0.288,0.32 -0.592,0.624 -0.096,-0.176 -0.256,-0.432 -0.144,-0.272 -0.32,-0.544 -0.16,-0.272 -0.336,-0.528 -0.176,-0.256 -0.304,-0.432 0.592,-0.528 1.168,-1.2 0.592,-0.688 1.12,-1.456 0.528,-0.784 0.976,-1.616 0.448,-0.848 0.784,-1.712 l 1.936,0.64 q -0.32,0.768 -0.72,1.536 -0.384,0.768 -0.832,1.536 v 5.84 q 0.752,-0.368 1.52,-0.816 0.784,-0.448 1.552,-1.008 v -7.424 h 2.064 v 5.776 q 0.96,-0.864 1.824,-1.84 0.864,-0.992 1.584,-2.096 l 1.824,1.248 q -1.12,1.552 -2.464,2.88 -1.344,1.328 -2.768,2.416 v 3.072 q 0,0.352 0.016,0.56 0.032,0.208 0.112,0.32 0.08,0.112 0.224,0.16 0.144,0.032 0.384,0.032 z"
          id="path580"
          style="font-size:16px;font-family:'Source Han Sans CN Bold WH';-inkscape-font-specification:'Source Han Sans CN Bold WH';fill:#ffffff"/>
  <path
          d="m 507.09505,40.749708 v -2.72 h -3.504 v 2.72 z m -8.864,0 h 3.392 v -2.72 h -3.392 z m 0,-7.248 v 2.672 h 3.392 v -2.672 z m 5.36,0 v 2.672 h 3.504 v -2.672 z m 5.504,-1.92 v 11.888 h -2 v -0.832 h -8.864 v 0.848 h -1.904 v -11.904 h 5.296 v -3.024 h 1.968 v 3.024 z"
          id="path582"
          style="font-size:16px;font-family:'Source Han Sans CN Bold WH';-inkscape-font-specification:'Source Han Sans CN Bold WH';fill:#ffffff"/>
  <path
          d="m 441.67105,60.333708 h 3.984 v 1.76 h -6.176 v -11.552 h 2.192 z"
          id="path584"
          style="font-size:16px;font-family:'Source Han Sans CN Bold WH';-inkscape-font-specification:'Source Han Sans CN Bold WH';fill:#ffffff"/>
  <path
          d="m 449.84704,53.133708 q 0.864,0 1.44,0.24 0.592,0.224 0.96,0.624 0.368,0.384 0.528,0.896 0.16,0.512 0.16,1.088 v 3.52 q 0,0.576 -0.16,1.088 -0.16,0.512 -0.528,0.912 -0.368,0.384 -0.96,0.608 -0.576,0.24 -1.44,0.24 -0.88,0 -1.472,-0.24 -0.592,-0.224 -0.96,-0.608 -0.352,-0.4 -0.512,-0.912 -0.16,-0.512 -0.16,-1.088 v -3.52 q 0,-0.576 0.16,-1.088 0.16,-0.512 0.512,-0.896 0.368,-0.4 0.96,-0.624 0.592,-0.24 1.472,-0.24 z m 0,1.552 q -0.464,0 -0.768,0.224 -0.288,0.208 -0.288,0.816 v 4.032 q 0,0.592 0.304,0.816 0.304,0.224 0.768,0.224 0.48,0 0.752,-0.208 0.272,-0.224 0.272,-0.832 v -4.032 q 0,-0.608 -0.288,-0.816 -0.272,-0.224 -0.752,-0.224 z"
          id="path586"
          style="font-size:16px;font-family:'Source Han Sans CN Bold WH';-inkscape-font-specification:'Source Han Sans CN Bold WH';fill:#ffffff"/>
  <path
          d="m 458.02303,56.525708 v -0.992 q 0,-0.4 -0.224,-0.592 -0.224,-0.192 -0.544,-0.192 -0.368,0 -0.608,0.224 -0.224,0.208 -0.224,0.672 v 4.192 q 0,0.464 0.224,0.688 0.24,0.208 0.608,0.208 0.32,0 0.544,-0.192 0.224,-0.192 0.224,-0.592 v -1.232 h 1.968 v 1.328 q 0,0.576 -0.256,1.008 -0.24,0.432 -0.64,0.72 -0.384,0.288 -0.88,0.432 -0.48,0.144 -0.96,0.144 -0.64,0 -1.168,-0.176 -0.528,-0.176 -0.912,-0.496 -0.384,-0.336 -0.592,-0.784 -0.208,-0.448 -0.208,-1.008 v -4.288 q 0,-0.544 0.208,-0.992 0.208,-0.464 0.592,-0.784 0.384,-0.336 0.912,-0.512 0.528,-0.176 1.168,-0.176 0.48,0 0.96,0.144 0.496,0.144 0.88,0.432 0.4,0.288 0.64,0.72 0.256,0.432 0.256,1.008 v 1.088 z"
          id="path588"
          style="font-size:16px;font-family:'Source Han Sans CN Bold WH';-inkscape-font-specification:'Source Han Sans CN Bold WH';fill:#ffffff"/>
  <path
          d="m 464.11903,58.413708 q -0.368,0.24 -0.528,0.592 -0.144,0.352 -0.144,0.656 0,0.496 0.192,0.848 0.208,0.352 0.672,0.352 0.464,0 0.784,-0.272 0.32,-0.288 0.32,-0.88 v -2.128 z m -2.592,-2.368 v -0.432 q 0,-0.528 0.208,-0.976 0.224,-0.448 0.608,-0.784 0.4,-0.336 0.928,-0.528 0.544,-0.192 1.184,-0.192 0.64,0 1.184,0.128 0.56,0.128 0.96,0.4 0.416,0.272 0.64,0.704 0.24,0.416 0.24,1.008 v 5.44 q 0,0.448 0.032,0.752 0.048,0.304 0.224,0.528 h -2.064 q -0.096,-0.144 -0.128,-0.4 -0.032,-0.256 -0.032,-0.432 -0.288,0.512 -0.704,0.8 -0.416,0.288 -1.2,0.288 -0.976,0 -1.616,-0.592 -0.624,-0.592 -0.624,-1.824 0,-1.136 0.544,-1.776 0.544,-0.64 1.68,-1.12 0.352,-0.144 0.688,-0.288 0.336,-0.16 0.576,-0.336 0.256,-0.192 0.4,-0.4 0.16,-0.224 0.16,-0.496 0,-0.768 -0.944,-0.768 -0.416,0 -0.72,0.272 -0.304,0.256 -0.304,0.848 v 0.176 z"
          id="path590"
          style="font-size:16px;font-family:'Source Han Sans CN Bold WH';-inkscape-font-specification:'Source Han Sans CN Bold WH';fill:#ffffff"/>
  <path
          d="m 471.04702,62.093708 h -1.968 v -11.552 h 1.968 z"
          id="path592"
          style="font-size:16px;font-family:'Source Han Sans CN Bold WH';-inkscape-font-specification:'Source Han Sans CN Bold WH';fill:#ffffff"/>
  <path
          d="m 472.64702,50.541708 h 1.968 v 1.968 h -1.968 z m 1.968,11.552 h -1.968 v -8.736 h 1.968 z"
          id="path594"
          style="font-size:16px;font-family:'Source Han Sans CN Bold WH';-inkscape-font-specification:'Source Han Sans CN Bold WH';fill:#ffffff"/>
  <path
          d="m 481.11101,53.357708 v 1.552 l -2.976,5.632 h 3.104 v 1.552 h -5.312 v -1.648 l 2.992,-5.536 h -2.992 v -1.552 z"
          id="path596"
          style="font-size:16px;font-family:'Source Han Sans CN Bold WH';-inkscape-font-specification:'Source Han Sans CN Bold WH';fill:#ffffff"/>
  <path
          d="m 484.31102,57.933708 v 1.904 q 0,0.48 0.272,0.72 0.288,0.24 0.768,0.24 0.48,0 0.752,-0.24 0.288,-0.256 0.288,-0.72 v -0.496 h 1.968 v 0.24 q 0,0.736 -0.224,1.264 -0.224,0.528 -0.624,0.864 -0.4,0.336 -0.96,0.48 -0.544,0.16 -1.2,0.16 -0.656,0 -1.216,-0.16 -0.544,-0.144 -0.944,-0.48 -0.4,-0.336 -0.624,-0.848 -0.224,-0.528 -0.224,-1.28 v -3.68 q 0,-0.736 0.224,-1.264 0.224,-0.528 0.624,-0.864 0.4,-0.336 0.944,-0.48 0.56,-0.16 1.216,-0.16 0.656,0 1.2,0.16 0.56,0.144 0.96,0.48 0.4,0.336 0.624,0.864 0.224,0.528 0.224,1.264 v 2.032 z m 2.08,-1.44 v -0.848 q 0,-0.464 -0.288,-0.704 -0.272,-0.256 -0.752,-0.256 -0.48,0 -0.768,0.24 -0.272,0.24 -0.272,0.72 v 0.848 z"
          id="path598"
          style="font-size:16px;font-family:'Source Han Sans CN Bold WH';-inkscape-font-specification:'Source Han Sans CN Bold WH';fill:#ffffff"/>
  <path
          d="m 492.82301,54.749708 q -0.368,0 -0.672,0.256 -0.304,0.256 -0.304,0.8 v 3.936 q 0,0.544 0.304,0.8 0.304,0.256 0.672,0.256 0.384,0 0.656,-0.256 0.288,-0.256 0.288,-0.768 v -4 q 0,-0.512 -0.288,-0.768 -0.272,-0.256 -0.656,-0.256 z m 0.944,-4.208 h 1.968 v 11.552 h -1.968 v -0.896 q -0.272,0.512 -0.72,0.832 -0.432,0.32 -0.96,0.32 -0.448,0 -0.864,-0.16 -0.416,-0.144 -0.736,-0.448 -0.304,-0.304 -0.496,-0.768 -0.192,-0.464 -0.192,-1.088 v -4.304 q 0,-0.656 0.192,-1.12 0.192,-0.464 0.496,-0.752 0.32,-0.304 0.736,-0.432 0.416,-0.144 0.864,-0.144 0.608,0 1.024,0.272 0.432,0.272 0.656,0.592 z"
          id="path600"
          style="font-size:16px;font-family:'Source Han Sans CN Bold WH';-inkscape-font-specification:'Source Han Sans CN Bold WH';fill:#ffffff"/>
  <path
          d="m 499.527,55.549708 2.656,-5.008 h 2.48 l -2.928,5.008 3.024,6.544 h -2.448 l -1.92,-4.608 -0.864,1.136 v 3.472 h -2.192 v -11.552 h 2.192 z"
          id="path602"
          style="font-size:16px;font-family:'Source Han Sans CN Bold WH';-inkscape-font-specification:'Source Han Sans CN Bold WH';fill:#ffffff"/>
  <path
          d="m 508.695,53.133708 q 0.864,0 1.44,0.24 0.592,0.224 0.96,0.624 0.368,0.384 0.528,0.896 0.16,0.512 0.16,1.088 v 3.52 q 0,0.576 -0.16,1.088 -0.16,0.512 -0.528,0.912 -0.368,0.384 -0.96,0.608 -0.576,0.24 -1.44,0.24 -0.88,0 -1.472,-0.24 -0.592,-0.224 -0.96,-0.608 -0.352,-0.4 -0.512,-0.912 -0.16,-0.512 -0.16,-1.088 v -3.52 q 0,-0.576 0.16,-1.088 0.16,-0.512 0.512,-0.896 0.368,-0.4 0.96,-0.624 0.592,-0.24 1.472,-0.24 z m 0,1.552 q -0.464,0 -0.768,0.224 -0.288,0.208 -0.288,0.816 v 4.032 q 0,0.592 0.304,0.816 0.304,0.224 0.768,0.224 0.48,0 0.752,-0.208 0.272,-0.224 0.272,-0.832 v -4.032 q 0,-0.608 -0.288,-0.816 -0.272,-0.224 -0.752,-0.224 z"
          id="path604"
          style="font-size:16px;font-family:'Source Han Sans CN Bold WH';-inkscape-font-specification:'Source Han Sans CN Bold WH';fill:#ffffff"/>
  <path
          d="m 515.19099,53.357708 v 1.664 h 0.016 q 0.224,-0.864 0.72,-1.328 0.512,-0.464 1.312,-0.464 v 2.176 q -0.288,0 -0.624,0.048 -0.336,0.032 -0.64,0.208 -0.304,0.176 -0.512,0.576 -0.192,0.384 -0.192,1.072 v 4.784 h -1.968 v -8.736 z"
          id="path606"
          style="font-size:16px;font-family:'Source Han Sans CN Bold WH';-inkscape-font-specification:'Source Han Sans CN Bold WH';fill:#ffffff"/>
  <path
          d="m 520.87099,58.413708 q -0.368,0.24 -0.528,0.592 -0.144,0.352 -0.144,0.656 0,0.496 0.192,0.848 0.208,0.352 0.672,0.352 0.464,0 0.784,-0.272 0.32,-0.288 0.32,-0.88 v -2.128 z m -2.592,-2.368 v -0.432 q 0,-0.528 0.208,-0.976 0.224,-0.448 0.608,-0.784 0.4,-0.336 0.928,-0.528 0.544,-0.192 1.184,-0.192 0.64,0 1.184,0.128 0.56,0.128 0.96,0.4 0.416,0.272 0.64,0.704 0.24,0.416 0.24,1.008 v 5.44 q 0,0.448 0.032,0.752 0.048,0.304 0.224,0.528 h -2.064 q -0.096,-0.144 -0.128,-0.4 -0.032,-0.256 -0.032,-0.432 -0.288,0.512 -0.704,0.8 -0.416,0.288 -1.2,0.288 -0.976,0 -1.616,-0.592 -0.624,-0.592 -0.624,-1.824 0,-1.136 0.544,-1.776 0.544,-0.64 1.68,-1.12 0.352,-0.144 0.688,-0.288 0.336,-0.16 0.576,-0.336 0.256,-0.192 0.4,-0.4 0.16,-0.224 0.16,-0.496 0,-0.768 -0.944,-0.768 -0.416,0 -0.72,0.272 -0.304,0.256 -0.304,0.848 v 0.176 z"
          id="path608"
          style="font-size:16px;font-family:'Source Han Sans CN Bold WH';-inkscape-font-specification:'Source Han Sans CN Bold WH';fill:#ffffff"/>
  <path
          d="m 528.77498,54.749708 q -0.368,0 -0.672,0.256 -0.304,0.256 -0.304,0.8 v 3.936 q 0,0.544 0.304,0.8 0.304,0.256 0.672,0.256 0.384,0 0.656,-0.256 0.288,-0.256 0.288,-0.768 v -4 q 0,-0.512 -0.288,-0.768 -0.272,-0.256 -0.656,-0.256 z m -0.976,-0.752 q 0.224,-0.32 0.64,-0.592 0.432,-0.272 1.04,-0.272 0.448,0 0.864,0.144 0.416,0.128 0.72,0.432 0.32,0.288 0.512,0.752 0.192,0.464 0.192,1.12 v 4.304 q 0,0.624 -0.192,1.088 -0.192,0.464 -0.512,0.768 -0.304,0.304 -0.72,0.448 -0.416,0.16 -0.864,0.16 -0.528,0 -1.008,-0.32 -0.48,-0.336 -0.672,-0.832 v 0.896 h -1.968 v -11.552 h 1.968 z"
          id="path610"
          style="font-size:16px;font-family:'Source Han Sans CN Bold WH';-inkscape-font-specification:'Source Han Sans CN Bold WH';fill:#ffffff"/>
  <path
          d="m 535.25497,62.093708 h -1.968 v -11.552 h 1.968 z"
          id="path612"
          style="font-size:16px;font-family:'Source Han Sans CN Bold WH';-inkscape-font-specification:'Source Han Sans CN Bold WH';fill:#ffffff"/>
  <path
          d="m 536.85496,50.541708 h 1.968 v 1.968 h -1.968 z m 1.968,11.552 h -1.968 v -8.736 h 1.968 z"
          id="path614"
          style="font-size:16px;font-family:'Source Han Sans CN Bold WH';-inkscape-font-specification:'Source Han Sans CN Bold WH';fill:#ffffff"/>
  <path
          d="m 465.07905,72.221708 q 0.08,-0.288 0.144,-0.592 0.08,-0.304 0.16,-0.624 h -2.88 v -1.6 h 7.616 v 1.6 h -2.8 q -0.128,0.32 -0.272,0.64 -0.128,0.304 -0.256,0.576 h 2.704 v 7.568 h -1.696 v -5.92 h -2.928 v 5.968 h -1.632 v -7.616 z m -5.68,-3.152 q -0.224,0.72 -0.48,1.456 -0.24,0.72 -0.544,1.44 v 11.52 h -1.696 v -8.16 q -0.224,0.368 -0.464,0.704 -0.24,0.32 -0.464,0.624 -0.048,-0.16 -0.16,-0.432 -0.096,-0.272 -0.224,-0.56 -0.112,-0.304 -0.24,-0.576 -0.128,-0.288 -0.24,-0.48 0.432,-0.56 0.848,-1.248 0.416,-0.704 0.768,-1.472 0.368,-0.784 0.672,-1.616 0.304,-0.832 0.528,-1.68 z m 3.264,8.736 q -0.064,0.4 -0.08,0.88 -0.016,0.48 0.016,0.784 -0.864,0.432 -1.408,0.72 -0.528,0.288 -0.848,0.496 -0.32,0.192 -0.48,0.32 -0.16,0.128 -0.256,0.224 -0.08,-0.352 -0.288,-0.848 -0.192,-0.496 -0.4,-0.8 0.208,-0.128 0.368,-0.368 0.16,-0.256 0.16,-0.72 v -8.128 h 1.6 v 2.848 h 1.648 v 1.6 h -1.648 v 3.696 z m 4.368,-0.24 q 0,0.784 -0.112,1.616 -0.112,0.832 -0.512,1.632 -0.4,0.784 -1.184,1.488 -0.768,0.704 -2.096,1.248 -0.16,-0.24 -0.448,-0.576 -0.288,-0.32 -0.56,-0.528 1.104,-0.432 1.776,-1.04 0.672,-0.608 1.04,-1.28 0.384,-0.672 0.496,-1.344 0.128,-0.672 0.128,-1.232 v -3.216 h 1.472 z m 0.272,2.368 q 0.368,0.24 0.784,0.528 0.416,0.272 0.8,0.576 0.4,0.304 0.752,0.592 0.352,0.288 0.592,0.528 l -1.024,1.328 q -0.224,-0.256 -0.56,-0.576 -0.336,-0.304 -0.72,-0.624 -0.384,-0.32 -0.8,-0.624 -0.416,-0.304 -0.784,-0.576 z"
          id="path616"
          style="font-size:16px;font-family:'Source Han Sans CN Bold WH';-inkscape-font-specification:'Source Han Sans CN Bold WH';fill:#ffffff"/>
  <path
          d="m 470.99905,75.869708 q 0.128,-0.4 0.224,-0.928 0.112,-0.528 0.192,-1.088 0.096,-0.56 0.144,-1.12 0.064,-0.56 0.096,-1.04 l 1.344,0.176 q -0.016,0.496 -0.064,1.088 -0.048,0.576 -0.144,1.184 -0.08,0.592 -0.192,1.168 -0.096,0.56 -0.224,1.024 z m 12.24,3.92 v -0.736 h -4.784 v 0.736 z m -4.784,-2.832 v 0.752 h 4.784 v -0.752 z m 6.576,4.704 q 0,0.624 -0.16,0.976 -0.144,0.368 -0.576,0.56 -0.416,0.208 -1.024,0.24 -0.608,0.032 -1.44,0.032 -0.048,-0.352 -0.192,-0.816 -0.144,-0.448 -0.32,-0.8 0.496,0.032 0.976,0.032 0.48,0 0.64,0 0.304,0 0.304,-0.256 v -0.528 h -4.784 v 2.4 h -1.76 v -7.936 h 8.336 z m 1.072,-8.064 v 1.36 h -10.48 v -1.36 h 4.24 v -0.688 h -3.312 l 0.032,0.08 -1.248,0.608 q -0.08,-0.352 -0.24,-0.816 -0.16,-0.48 -0.352,-0.944 v 11.632 h -1.712 v -14.928 h 1.712 v 2.56 l 0.912,-0.384 q 0.256,0.512 0.496,1.12 0.256,0.608 0.4,1.056 v -1.264 h 3.312 v -0.64 h -3.744 v -1.36 h 3.744 v -1.088 h 1.888 v 1.088 h 3.872 v 1.36 h -3.872 v 0.64 h 3.44 v 1.28 h -3.44 v 0.688 z"
          id="path618"
          style="font-size:16px;font-family:'Source Han Sans CN Bold WH';-inkscape-font-specification:'Source Han Sans CN Bold WH';fill:#ffffff"/>
  <path
          d="m 490.93505,73.581708 v -1.2 h -1.616 q -0.128,0.336 -0.272,0.64 -0.144,0.288 -0.272,0.56 z m 1.808,0 h 3.504 v 1.712 h -3.504 v 1.168 h 3.12 v 4.08 q 0,0.56 -0.112,0.912 -0.112,0.336 -0.464,0.544 -0.336,0.208 -0.8,0.256 -0.448,0.048 -1.056,0.032 -0.032,-0.368 -0.176,-0.816 -0.128,-0.448 -0.288,-0.8 0.336,0.032 0.592,0.032 0.272,0 0.4,-0.016 0.112,0 0.144,-0.032 0.048,-0.032 0.048,-0.16 v -2.336 h -1.408 v 5.312 h -1.808 v -5.312 h -1.312 v 4.048 h -1.696 v -5.744 h 3.008 v -1.168 h -3.632 v -1.712 h 1.2 q -0.16,-0.08 -0.352,-0.16 -0.192,-0.096 -0.384,-0.176 -0.192,-0.08 -0.384,-0.144 -0.176,-0.08 -0.32,-0.128 0.496,-0.768 0.864,-1.872 0.384,-1.12 0.608,-2.272 l 1.744,0.368 q -0.08,0.368 -0.176,0.736 -0.08,0.352 -0.192,0.72 h 1.024 v -2.016 h 1.808 v 2.016 h 2.864 v 1.728 h -2.864 z m 6,5.28 h -1.776 v -9.008 h 1.776 z m 2.912,-10.048 v 12.416 q 0,0.768 -0.176,1.184 -0.176,0.432 -0.608,0.672 -0.448,0.224 -1.136,0.288 -0.688,0.08 -1.616,0.08 -0.032,-0.192 -0.096,-0.448 -0.048,-0.24 -0.128,-0.496 -0.064,-0.256 -0.16,-0.512 -0.08,-0.256 -0.176,-0.464 0.304,0.016 0.608,0.032 0.304,0 0.56,0 0.256,0 0.448,0 0.208,0 0.304,0 0.192,-0.016 0.272,-0.08 0.08,-0.064 0.08,-0.272 v -12.4 z"
          id="path620"
          style="font-size:16px;font-family:'Source Han Sans CN Bold WH';-inkscape-font-specification:'Source Han Sans CN Bold WH';fill:#ffffff"/>
  <path
          d="m 508.56705,69.181708 q -0.32,0.848 -0.704,1.68 -0.384,0.832 -0.832,1.648 v 10.96 h -1.92 v -8 q -0.256,0.304 -0.512,0.592 -0.24,0.288 -0.48,0.56 -0.064,-0.176 -0.192,-0.448 -0.128,-0.272 -0.288,-0.56 -0.144,-0.288 -0.304,-0.56 -0.144,-0.288 -0.272,-0.464 0.544,-0.544 1.072,-1.216 0.528,-0.688 0.992,-1.456 0.48,-0.784 0.88,-1.616 0.4,-0.848 0.704,-1.696 z m 5.072,3.776 v 1.68 h 4.144 v 1.728 h -4.144 v 1.808 h 4.352 v 1.76 h -4.352 v 3.552 h -1.952 v -10.528 h -0.608 q -0.48,0.896 -1.024,1.696 -0.528,0.784 -1.072,1.408 -0.112,-0.128 -0.304,-0.304 -0.176,-0.192 -0.384,-0.368 -0.208,-0.192 -0.416,-0.368 -0.208,-0.176 -0.352,-0.288 0.528,-0.544 1.024,-1.232 0.496,-0.688 0.928,-1.456 0.432,-0.784 0.8,-1.632 0.368,-0.848 0.64,-1.712 l 1.84,0.464 q -0.176,0.512 -0.368,1.008 -0.192,0.48 -0.416,0.976 h 6.208 v 1.808 z"
          id="path622"
          style="font-size:16px;font-family:'Source Han Sans CN Bold WH';-inkscape-font-specification:'Source Han Sans CN Bold WH';fill:#ffffff"/>
</svg>
