<?xml version="1.0" encoding="UTF-8" standalone="no"?>
<svg
        width="440"
        height="77"
        viewBox="0 0 440 77"
        fill="none"
        version="1.1"
        id="svg410"
        sodipodi:docname="game_logo_static.svg"
        inkscape:version="1.2.2 (732a01da63, 2022-12-09)"
        xmlns:inkscape="http://www.inkscape.org/namespaces/inkscape"
        xmlns:sodipodi="http://sodipodi.sourceforge.net/DTD/sodipodi-0.dtd"
        xmlns="http://www.w3.org/2000/svg"
>
    <defs
            id="defs414"/>
    <sodipodi:namedview
            id="namedview412"
            pagecolor="#ffffff"
            bordercolor="#000000"
            borderopacity="0.25"
            inkscape:showpageshadow="2"
            inkscape:pageopacity="0"
            inkscape:pagecheckerboard="0"
            inkscape:deskcolor="#d1d1d1"
            showgrid="false"
            inkscape:zoom="2.5038008"
            inkscape:cx="196.90065"
            inkscape:cy="61.107098"
            inkscape:window-width="2560"
            inkscape:window-height="1334"
            inkscape:window-x="-11"
            inkscape:window-y="-11"
            inkscape:window-maximized="1"
            inkscape:current-layer="svg410"/>
    <path
            d="m 274.16496,55.116205 h 5.79606 v 2.10766 h -5.79606 z"
            fill="#ffffff"
            id="path407"
            style="stroke-width:0.263457"/>
    <path
            d="m 174.56487,58.277695 -1.87055,9.484468 h -0.18442 l -1.87055,-9.484468 h -4.49195 v 16.861277 h 3.42495 v -9.484469 h 0.0975 l 2.06814,9.484469 h 1.53859 l 2.06814,-9.484469 h 0.2898 v 9.484469 h 3.42495 V 58.277695 Z"
            fill="#ffffff"
            id="path388"
            style="stroke-width:0.263457"/>
    <path
            d="m 184.06778,66.708333 2.61876,-8.430638 h 3.43549 v 16.861277 h -3.42495 v -8.694096 h -0.26346 l -2.67672,8.694096 h -3.3828 V 58.277695 h 3.42495 v 8.430638 z"
            fill="#ffffff"
            id="path390"
            style="stroke-width:0.263457"/>
    <path
            fill-rule="evenodd"
            clip-rule="evenodd"
            d="m 198.86091,59.29991 c 0.31088,0.313514 0.54536,0.695527 0.69026,1.114425 l -0.003,0.0026 c 0.26082,0.808815 0.31878,1.493804 0.31878,2.679362 v 2.436982 c 0,1.188193 -0.058,1.870548 -0.31878,2.679362 -0.14227,0.418897 -0.37938,0.800911 -0.68762,1.114425 -0.30825,0.313515 -0.68236,0.550626 -1.09599,0.698162 -0.80091,0.263458 -1.47009,0.324053 -2.63721,0.324053 v 4.789657 h -3.68843 V 58.277695 h 3.68577 c 1.16711,0 1.83893,0.06059 2.6372,0.324052 0.41363,0.144902 0.78774,0.384648 1.09862,0.698163 z m -2.6135,7.988029 c 0.0606,-0.06586 0.10539,-0.142267 0.13437,-0.229207 v 0.0026 c 0.0501,-0.179151 0.0711,-0.366206 0.0659,-0.553261 v -4.339144 c 0.005,-0.187055 -0.0158,-0.374109 -0.0632,-0.55326 -0.029,-0.08694 -0.0738,-0.163344 -0.13437,-0.229208 -0.058,-0.06586 -0.13172,-0.113287 -0.21076,-0.144902 -0.16598,-0.05006 -0.33986,-0.07377 -0.51111,-0.06586 h -0.40046 v 6.322978 h 0.39782 c 0.17388,0.0079 0.34513,-0.01317 0.51111,-0.06586 0.079,-0.03162 0.15017,-0.08167 0.21076,-0.144902 z"
            fill="#ffffff"
            id="path392"
            style="stroke-width:0.263457"/>
    <path
            fill-rule="evenodd"
            clip-rule="evenodd"
            d="m 234.06673,58.277695 h 5.89881 l 2.58452,16.861277 h -3.70948 l -0.39782,-2.898032 h -2.85061 l -0.39782,2.898032 h -3.70948 z m 3.12461,3.688404 h -0.35567 l -0.87995,7.376809 h 2.1182 z"
            fill="#ffffff"
            id="path394"
            style="stroke-width:0.263457"/>
    <path
            d="m 260.6048,58.277695 h -6.07533 l -2.23148,16.861277 h 3.73846 l 1.3568,-12.645958 h 0.34777 l 1.3568,12.645958 h 3.73847 z"
            fill="#ffffff"
            id="path396"
            style="stroke-width:0.263457"/>
    <path
            d="m 209.36233,58.277695 h 3.7569 l -2.71098,8.164546 v 0.02898 l 2.71098,8.667751 h -3.7569 l -2.01809,-7.113352 h -0.36093 v 7.113352 H 203.2949 V 58.277695 h 3.68841 v 6.586436 h 0.36093 z"
            fill="#ffffff"
            id="path398"
            style="stroke-width:0.263457"/>
    <path
            d="m 275.73516,66.708333 h -0.25292 v -8.430638 h -3.16149 v 16.861277 h 3.42758 l 2.62931,-8.694096 h 0.26609 v 8.694096 h 3.16149 V 58.277695 h -3.66996 z"
            fill="#ffffff"
            id="path400"
            style="stroke-width:0.263457"/>
    <path
            d="m 271.00347,61.439184 v -3.161489 h -7.37681 v 16.861277 h 7.37681 v -3.16149 h -3.68841 V 68.02562 h 3.16149 v -2.898032 h -3.16149 v -3.688404 z"
            fill="#ffffff"
            id="path402"
            style="stroke-width:0.263457"/>
    <path
            fill-rule="evenodd"
            clip-rule="evenodd"
            d="m 221.17576,59.262973 c 0.32142,0.345129 0.56643,0.753488 0.71924,1.198731 l 0.003,0.0026 c 0.36884,1.038022 0.36884,1.920605 0.36884,4.710619 v 3.077183 c 0,2.792649 0,3.669962 -0.36884,4.707985 -0.15281,0.445243 -0.39782,0.853602 -0.71924,1.198731 -0.32405,0.342495 -0.71661,0.616491 -1.15131,0.798276 -0.70867,0.295108 -1.47269,0.445331 -2.24199,0.445331 -0.76929,0 -1.52805,-0.150223 -2.23675,-0.445296 -0.43734,-0.18442 -0.82989,-0.455781 -1.15131,-0.80091 -0.32142,-0.34513 -0.56644,-0.753489 -0.71924,-1.198732 -0.36884,-1.035388 -0.36884,-1.91797 -0.36884,-4.707985 v -3.077183 c 0,-2.795283 0,-3.672596 0.36884,-4.710619 0.1528,-0.445243 0.39782,-0.853602 0.71924,-1.198731 0.32142,-0.342495 0.71397,-0.616491 1.14867,-0.798276 0.7087,-0.295073 1.4701,-0.447878 2.23939,-0.447878 0.7693,0 1.53069,0.152805 2.23939,0.447878 0.43734,0.181785 0.82989,0.453147 1.15131,0.798276 z m -2.44752,12.817205 c 0.0817,-0.18442 0.11065,-0.395186 0.11065,-1.056465 v -8.628231 c 0,-0.661278 -0.0263,-0.872044 -0.11065,-1.059099 -0.0685,-0.173882 -0.20286,-0.313514 -0.37411,-0.392552 -0.137,-0.06323 -0.28453,-0.09484 -0.43471,-0.09484 -0.15017,0 -0.2977,0.03161 -0.4347,0.09484 -0.16861,0.07904 -0.30298,0.21867 -0.37411,0.392552 -0.0817,0.187055 -0.11065,0.397821 -0.11065,1.059099 v 8.628231 c 0,0.658644 0.0263,0.86941 0.11065,1.056465 0.0685,0.173882 0.20286,0.313514 0.37411,0.392551 0.137,0.06323 0.28453,0.09484 0.4347,0.09484 0.15018,0 0.29771,-0.03162 0.43471,-0.09484 0.16861,-0.07904 0.30298,-0.218669 0.37411,-0.392551 z"
            fill="#ffffff"
            id="path404"
            style="stroke-width:0.263457"/>
    <path
            fill-rule="evenodd"
            clip-rule="evenodd"
            d="m 231.42952,60.414335 c -0.1449,-0.418898 -0.37938,-0.800911 -0.68762,-1.114425 -0.30825,-0.313515 -0.68499,-0.553261 -1.09598,-0.698163 -0.79828,-0.263457 -1.4701,-0.324052 -2.63721,-0.324052 h -3.68841 v 16.861277 h 3.68841 v -4.955635 c 1.16711,0 1.83629,-0.06059 2.63721,-0.324053 0.41362,-0.147536 0.78773,-0.384648 1.09598,-0.698162 0.30824,-0.313514 0.54536,-0.695528 0.68762,-1.114425 0.26083,-0.811449 0.31879,-1.491169 0.31879,-2.679362 v -2.273638 c 0,-1.185559 -0.0606,-1.870548 -0.31879,-2.679362 z m -3.16676,6.633858 c -0.029,0.08958 -0.0738,0.168613 -0.13436,0.234477 -0.0606,0.06587 -0.13173,0.115922 -0.2134,0.147537 -0.16598,0.05269 -0.33723,0.0764 -0.51111,0.0685 h -0.39782 v -6.322978 h 0.39782 c 0.17125,-0.0079 0.34513,0.01581 0.51111,0.0685 0.079,0.03161 0.15281,0.08167 0.2134,0.147536 0.0606,0.06586 0.10538,0.147536 0.13436,0.234477 0.0474,0.18442 0.0685,0.376744 0.0632,0.566433 v 4.283819 c 0.005,0.192323 -0.0158,0.384647 -0.0632,0.566433 z"
            fill="#ffffff"
            id="path406"
            style="stroke-width:0.263457"/>
    <path
            fill-rule="evenodd"
            clip-rule="evenodd"
            d="m 250.7067,64.922144 c 0.32669,0.313515 0.57434,0.695528 0.72715,1.114425 h 0.003 c 0.27399,0.808815 0.33722,1.491169 0.33722,2.676728 v 1.60709 c 0,1.188194 -0.0632,1.867914 -0.33722,2.679363 -0.15281,0.418897 -0.40046,0.80091 -0.72715,1.114425 -0.32668,0.313514 -0.7245,0.550626 -1.15921,0.698162 -0.84306,0.263457 -1.54913,0.324053 -2.78211,0.324053 h -3.42755 V 58.275113 h 7.64027 v 3.161489 h -4.21532 v 2.460693 c 1.23298,0 1.93905,0.06059 2.78211,0.324052 0.43734,0.147537 0.83253,0.387283 1.15921,0.700797 z m -2.4238,6.87624 c 0.0501,-0.181786 0.0711,-0.368841 0.0632,-0.555895 v -3.538234 c 0.005,-0.187055 -0.0158,-0.376744 -0.0632,-0.555895 -0.029,-0.08694 -0.0738,-0.163344 -0.13437,-0.229208 -0.0606,-0.06587 -0.13436,-0.113287 -0.2134,-0.144902 -0.16598,-0.05006 -0.33722,-0.07377 -0.51111,-0.06586 h -0.39782 v 5.532606 h 0.39782 c 0.17125,0.0053 0.34513,-0.01581 0.51111,-0.0685 0.0817,-0.03162 0.15281,-0.07904 0.2134,-0.144901 0.0606,-0.06323 0.10539,-0.142267 0.13437,-0.229208 z"
            fill="#ffffff"
            id="path408"
            style="stroke-width:0.263457"/>
    <path
            d="m 163.47418,15.605938 q -0.32,-0.8 -0.90667,-1.759999 -0.53333,-0.96 -1.22667,-1.973333 -0.64,-1.066666 -1.38666,-2.0799983 -0.69334,-1.066666 -1.38667,-1.9733322 l 4.32,-2.3999985 q 0.69333,0.8533328 1.44,1.8666655 0.74666,0.9599994 1.44,1.9733322 0.69333,1.0133323 1.28,1.9733323 0.64,0.906666 1.01333,1.653332 z m -24.53332,27.94665 V 32.832594 H 127.4742 v 10.719994 z m 29.54665,-17.11999 q -1.33334,3.946664 -3.25334,7.733328 -1.91999,3.786665 -4.47999,7.199996 0.74666,2.133332 1.49333,3.359998 0.8,1.173333 1.70667,1.279999 1.27999,0.106667 1.70666,-7.039995 0.37333,0.479999 1.01333,1.013332 0.64,0.533333 1.28,1.013333 0.64,0.48 1.22667,0.906666 0.58667,0.373333 0.96,0.586667 -0.48,3.306664 -1.22667,5.439996 -0.69333,2.133332 -1.54666,3.306665 -0.8,1.226666 -1.70667,1.653332 -0.85333,0.48 -1.65333,0.48 -2.45333,-0.106667 -4.32,-1.919999 -1.86666,-1.759999 -3.30666,-4.959997 -1.76,1.813332 -3.62667,3.253332 -1.86666,1.493332 -3.89333,2.666665 -0.74667,-0.906667 -1.86666,-2.026666 -1.06667,-1.066666 -2.18667,-1.973332 v 3.679998 h -5.86666 V 49.312584 H 127.4742 v 3.039998 h -5.65333 V 27.125931 h 7.41333 V 4.1392777 h 6.07999 v 8.6399953 h 10.18666 v 5.599996 h -10.18666 v 8.746662 h 9.49333 v 20.639987 q 2.72,-1.386665 5.06666,-3.253331 2.4,-1.866666 4.53333,-4.213331 -0.8,-3.306665 -1.43999,-7.253329 -0.58667,-3.946664 -1.01334,-8.479995 l -6.02666,0.853333 -0.85333,-5.439997 6.45333,-0.906666 q -0.26667,-3.519998 -0.42667,-7.253329 -0.16,-3.7866643 -0.26667,-7.8399952 h 5.86667 q 0.0533,3.7866644 0.16,7.3599952 0.16,3.573332 0.42666,6.93333 l 11.14666,-1.546666 0.85334,5.33333 -11.57333,1.706666 q 0.26667,2.826665 0.58667,5.386663 0.37333,2.559999 0.79999,4.853331 1.44,-2.453332 2.61334,-5.013331 1.17333,-2.559998 2.02666,-5.226663 z"
            id="path403"
            style="font-size:53.3333px;font-family:'Source Han Sans CN Bold WH';-inkscape-font-specification:'Source Han Sans CN Bold WH';fill:#ffffff"/>
    <path
            d="m 202.51415,33.89926 h -5.70666 V 5.95261 h 23.35999 v 27.94665 h -5.97333 V 11.392607 h -11.68 z m -17.11999,-1.599999 q 0.96,1.706666 1.86667,3.733331 0.96,2.026666 1.49333,3.573331 v -8.479995 h -6.82666 q 0,0.64 -0.0533,1.333333 0,0.639999 0,1.333332 z m -3.46666,-6.239996 h 6.82666 v -11.14666 h -6.82666 v 2.613331 l 3.73333,-1.439999 q 0.85333,1.706666 1.6,3.679998 0.8,1.973332 1.22666,3.413331 l -3.99999,1.706666 q -0.37334,-1.439999 -1.12,-3.413331 -0.69334,-1.973332 -1.44,-3.679998 z m 34.55998,21.49332 q 0.42666,0 0.69333,-0.32 0.32,-0.373333 0.48,-1.333332 0.21333,-0.96 0.32,-2.559999 0.10667,-1.653332 0.16,-4.21333 1.06667,0.746666 2.4,1.386665 1.38666,0.586667 2.50666,0.853333 -0.21333,3.093332 -0.53333,5.17333 -0.32,2.079999 -1.01333,3.306665 -0.69334,1.226666 -1.92,1.759999 -1.17333,0.533333 -3.14667,0.533333 h -3.14666 q -3.09333,0 -4.48,-1.226666 -1.38666,-1.173332 -1.38666,-4.53333 v -4.373331 q -1.54667,3.039998 -3.89333,5.81333 -2.34667,2.773331 -5.86667,5.01333 -0.48,-0.799999 -1.54666,-1.973332 -1.06667,-1.173333 -1.97334,-1.919999 -0.32,2.026665 -1.91999,3.039998 -1.17334,0.746666 -2.77334,0.906666 -1.6,0.16 -3.99999,0.16 -0.10667,-1.119999 -0.58667,-2.719998 -0.42667,-1.546666 -1.01333,-2.613332 1.28,0.05333 2.45333,0.05333 1.22666,0 1.65333,-0.05333 0.8,0 0.8,-0.799999 v -6.93333 l -3.89333,1.759999 q -0.37333,-1.546665 -1.28,-3.573331 -0.85333,-2.026665 -1.76,-3.839998 -0.10667,2.506666 -0.37333,5.173331 -0.21334,2.613331 -0.74667,5.17333 -0.48,2.506665 -1.28,4.85333 -0.8,2.346666 -1.97333,4.266664 -0.37333,-0.319999 -1.01333,-0.799999 -0.58667,-0.426666 -1.28,-0.853333 -0.64,-0.426666 -1.33333,-0.853333 -0.64,-0.373333 -1.12,-0.586666 1.22666,-2.026665 1.92,-4.426664 0.74666,-2.399999 1.11999,-4.959997 0.42667,-2.559999 0.53334,-5.119997 0.16,-2.613332 0.16,-5.066664 h -3.46667 v -5.066663 h 3.46667 V 10.005941 h 4.90666 q 0.42667,-1.5999992 0.74667,-3.3066648 0.32,-1.759999 0.48,-3.2533314 l 6.34666,1.066666 q -0.48,1.4399992 -1.01333,2.826665 -0.48,1.3866659 -0.96,2.6666652 h 7.30666 v 36.959978 q 0,0.373333 0,0.693333 0,0.32 -0.0533,0.639999 3.83999,-2.559998 6.07999,-5.599996 2.24,-3.039998 3.36,-6.186663 1.17333,-3.199998 1.49333,-6.346663 0.37334,-3.146665 0.37334,-5.97333 v -9.439994 h 5.70666 v 9.493327 q 0,2.239999 -0.21333,4.746664 -0.21334,2.453332 -0.8,5.013331 h 3.04 v 11.733326 q 0,1.013333 0.32,1.439999 0.32,0.373333 0.96,0.373333 z"
            id="path399"
            style="font-size:53.3333px;font-family:'Source Han Sans CN Bold WH';-inkscape-font-specification:'Source Han Sans CN Bold WH';fill:#ffffff"/>
    <path
            d="m 254.30079,22.485933 v 10.026661 h 7.35999 V 22.485933 Z m -6.29333,15.839991 V 22.485933 h -7.25333 v 21.866654 h 33.22665 v 6.13333 H 234.1408 V 22.485933 h -7.2 v -6.133329 h 7.2 V 5.0992772 h 6.61333 V 16.352604 h 7.25333 V 3.9792778 h 6.29333 V 16.352604 h 7.35999 V 4.4592775 h 6.66667 V 16.352604 h 7.03999 v 6.133329 h -7.03999 v 15.839991 z"
            id="path395"
            style="font-size:53.3333px;font-family:'Source Han Sans CN Bold WH';-inkscape-font-specification:'Source Han Sans CN Bold WH';fill:#ffffff"/>
    <path
            d="m 291.9541,22.9126 h 9.33333 v -3.839998 h -9.33333 z m 0,-8.586662 h 9.33333 v -3.839997 h -9.33333 z m 25.06665,-3.839997 h -9.33332 v 3.839997 h 9.33332 z m 0,8.586661 h -9.33332 V 22.9126 h 9.33332 z m -2.07999,8.959995 q 2.87999,2.399998 6.66666,4.266664 3.78666,1.866665 7.94666,2.933332 -1.01333,0.959999 -2.24,2.559998 -1.22666,1.599999 -1.97333,2.879998 -4.90666,-1.653332 -9.01333,-4.319997 v 16.853323 h -6.61333 V 34.432593 h 4 q -1.81333,-1.439999 -3.41333,-2.986665 -1.54667,-1.599999 -2.82667,-3.413331 h -5.49333 q -1.33333,1.759999 -2.98666,3.359998 -1.6,1.546666 -3.41333,2.986665 h 4.53333 v 3.679998 q 0,1.919998 -0.42667,4.05333 -0.37333,2.133332 -1.65333,4.266665 -1.28,2.079998 -3.68,3.999997 -2.4,1.919999 -6.39999,3.359998 -0.32,-0.586666 -0.85334,-1.279999 -0.53333,-0.693333 -1.17333,-1.439999 -0.58667,-0.693333 -1.22667,-1.333333 -0.58666,-0.639999 -1.12,-1.066666 3.36,-1.119999 5.33333,-2.453332 1.97334,-1.333332 2.98667,-2.773331 1.06667,-1.439999 1.33333,-2.879999 0.32,-1.439999 0.32,-2.719998 v -1.919999 q -4.53333,3.093332 -9.70666,4.959997 -0.69333,-1.173332 -1.92,-2.666665 -1.17333,-1.546666 -2.24,-2.559998 4,-1.173333 7.73333,-3.146665 3.78667,-1.973332 6.66666,-4.426664 h -8.47999 V 5.3659437 h 38.02664 V 28.032597 Z"
            id="path391"
            style="font-size:53.3333px;font-family:'Source Han Sans CN Bold WH';-inkscape-font-specification:'Source Han Sans CN Bold WH';fill:#ffffff"
            inkscape:label="path228"/>
</svg>
